<mxfile host="app.diagrams.net" modified="2024-06-13T11:14:08.633Z" agent="Mozilla/5.0 (Windows NT 10.0; Win64; x64) AppleWebKit/537.36 (KHTML, like Gecko) Chrome/122.0.0.0 YaBrowser/24.4.0.0 Safari/537.36" etag="KC2Wgg4XIeaQPPflKcET" version="24.5.4" type="github">
  <diagram name="Page-1" id="e7e014a7-5840-1c2e-5031-d8a46d1fe8dd">
    <mxGraphModel dx="1195" dy="653" grid="1" gridSize="10" guides="1" tooltips="1" connect="1" arrows="1" fold="1" page="1" pageScale="1" pageWidth="1169" pageHeight="826" background="none" math="0" shadow="0">
      <root>
        <mxCell id="0" />
        <mxCell id="1" parent="0" />
        <mxCell id="2" value="Model" style="swimlane;whiteSpace=wrap" parent="1" vertex="1">
          <mxGeometry x="165" y="280" width="280" height="570" as="geometry" />
        </mxCell>
        <mxCell id="3" value="View" style="swimlane;whiteSpace=wrap" parent="1" vertex="1">
          <mxGeometry x="445" y="280" width="280" height="570" as="geometry" />
        </mxCell>
        <mxCell id="4" value="Controller" style="swimlane;whiteSpace=wrap" parent="1" vertex="1">
          <mxGeometry x="725" y="280" width="280" height="570" as="geometry" />
        </mxCell>
        <mxCell id="PcI8RWvyvve6QA76Bclb-42" value="Model" style="swimlane;fontStyle=1;align=center;verticalAlign=top;childLayout=stackLayout;horizontal=1;startSize=26;horizontalStack=0;resizeParent=1;resizeParentMax=0;resizeLast=0;collapsible=1;marginBottom=0;whiteSpace=wrap;html=1;fontFamily=Comic Sans MS;" vertex="1" parent="1">
          <mxGeometry x="227.5" y="80" width="160" height="120" as="geometry" />
        </mxCell>
        <mxCell id="PcI8RWvyvve6QA76Bclb-43" value="+ field: type" style="text;strokeColor=none;fillColor=none;align=center;verticalAlign=top;spacingLeft=4;spacingRight=4;overflow=hidden;rotatable=0;points=[[0,0.5],[1,0.5]];portConstraint=eastwest;whiteSpace=wrap;html=1;fontFamily=Comic Sans MS;" vertex="1" parent="PcI8RWvyvve6QA76Bclb-42">
          <mxGeometry y="26" width="160" height="26" as="geometry" />
        </mxCell>
        <mxCell id="PcI8RWvyvve6QA76Bclb-44" value="" style="line;strokeWidth=1;fillColor=none;align=center;verticalAlign=middle;spacingTop=-1;spacingLeft=3;spacingRight=3;rotatable=0;labelPosition=right;points=[];portConstraint=eastwest;strokeColor=inherit;fontFamily=Comic Sans MS;" vertex="1" parent="PcI8RWvyvve6QA76Bclb-42">
          <mxGeometry y="52" width="160" height="8" as="geometry" />
        </mxCell>
        <mxCell id="PcI8RWvyvve6QA76Bclb-45" value="+ method(type): type" style="text;strokeColor=none;fillColor=none;align=center;verticalAlign=top;spacingLeft=4;spacingRight=4;overflow=hidden;rotatable=0;points=[[0,0.5],[1,0.5]];portConstraint=eastwest;whiteSpace=wrap;html=1;fontFamily=Comic Sans MS;" vertex="1" parent="PcI8RWvyvve6QA76Bclb-42">
          <mxGeometry y="60" width="160" height="26" as="geometry" />
        </mxCell>
        <mxCell id="PcI8RWvyvve6QA76Bclb-60" value="" style="line;strokeWidth=1;fillColor=none;align=center;verticalAlign=middle;spacingTop=-1;spacingLeft=3;spacingRight=3;rotatable=0;labelPosition=right;points=[];portConstraint=eastwest;strokeColor=inherit;fontFamily=Comic Sans MS;" vertex="1" parent="PcI8RWvyvve6QA76Bclb-42">
          <mxGeometry y="86" width="160" height="8" as="geometry" />
        </mxCell>
        <mxCell id="PcI8RWvyvve6QA76Bclb-61" value="+ method(type): type" style="text;strokeColor=none;fillColor=none;align=center;verticalAlign=top;spacingLeft=4;spacingRight=4;overflow=hidden;rotatable=0;points=[[0,0.5],[1,0.5]];portConstraint=eastwest;whiteSpace=wrap;html=1;fontFamily=Comic Sans MS;" vertex="1" parent="PcI8RWvyvve6QA76Bclb-42">
          <mxGeometry y="94" width="160" height="26" as="geometry" />
        </mxCell>
        <mxCell id="PcI8RWvyvve6QA76Bclb-62" value="&lt;font style=&quot;font-size: 16px;&quot;&gt;View&lt;/font&gt;" style="swimlane;fontStyle=1;align=center;verticalAlign=top;childLayout=stackLayout;horizontal=1;startSize=30;horizontalStack=0;resizeParent=1;resizeParentMax=0;resizeLast=0;collapsible=1;marginBottom=0;whiteSpace=wrap;html=1;fontFamily=Comic Sans MS;" vertex="1" parent="1">
          <mxGeometry x="505" y="80" width="160" height="120" as="geometry" />
        </mxCell>
        <mxCell id="PcI8RWvyvve6QA76Bclb-80" value="InterfaceElements" style="swimlane;fontStyle=1;align=center;verticalAlign=top;childLayout=stackLayout;horizontal=1;startSize=26;horizontalStack=0;resizeParent=1;resizeParentMax=0;resizeLast=0;collapsible=1;marginBottom=0;whiteSpace=wrap;html=1;fontFamily=Comic Sans MS;" vertex="1" collapsed="1" parent="PcI8RWvyvve6QA76Bclb-62">
          <mxGeometry y="30" width="160" height="30" as="geometry">
            <mxRectangle y="30" width="160" height="110" as="alternateBounds" />
          </mxGeometry>
        </mxCell>
        <mxCell id="PcI8RWvyvve6QA76Bclb-81" value="&lt;div&gt;Text&lt;/div&gt;&lt;div&gt;Sprite&lt;/div&gt;&lt;div&gt;Button&lt;/div&gt;&lt;div&gt;Slider&lt;/div&gt;&lt;div&gt;Label(?)&lt;/div&gt;" style="text;strokeColor=none;fillColor=none;align=center;verticalAlign=top;spacingLeft=4;spacingRight=4;overflow=hidden;rotatable=0;points=[[0,0.5],[1,0.5]];portConstraint=eastwest;whiteSpace=wrap;html=1;" vertex="1" parent="PcI8RWvyvve6QA76Bclb-80">
          <mxGeometry y="26" width="160" height="84" as="geometry" />
        </mxCell>
        <mxCell id="PcI8RWvyvve6QA76Bclb-82" value="GameLogicElements" style="swimlane;fontStyle=1;align=center;verticalAlign=top;childLayout=stackLayout;horizontal=1;startSize=26;horizontalStack=0;resizeParent=1;resizeParentMax=0;resizeLast=0;collapsible=1;marginBottom=0;whiteSpace=wrap;html=1;fontFamily=Comic Sans MS;" vertex="1" collapsed="1" parent="PcI8RWvyvve6QA76Bclb-62">
          <mxGeometry y="60" width="160" height="30" as="geometry">
            <mxRectangle y="60" width="160" height="110" as="alternateBounds" />
          </mxGeometry>
        </mxCell>
        <mxCell id="PcI8RWvyvve6QA76Bclb-83" value="&lt;div&gt;CharacterCard&lt;/div&gt;&lt;div&gt;CharacterDescription&lt;/div&gt;&lt;div&gt;Currency &lt;i&gt;*abstract&lt;/i&gt;&lt;/div&gt;&lt;div&gt;StarCurrency(Currency)&lt;/div&gt;&lt;div&gt;EnergyCurrency(Currency)&lt;/div&gt;" style="text;strokeColor=none;fillColor=none;align=center;verticalAlign=top;spacingLeft=4;spacingRight=4;overflow=hidden;rotatable=0;points=[[0,0.5],[1,0.5]];portConstraint=eastwest;whiteSpace=wrap;html=1;" vertex="1" parent="PcI8RWvyvve6QA76Bclb-82">
          <mxGeometry y="26" width="160" height="84" as="geometry" />
        </mxCell>
        <mxCell id="PcI8RWvyvve6QA76Bclb-76" value="Menus" style="swimlane;fontStyle=1;align=center;verticalAlign=top;childLayout=stackLayout;horizontal=1;startSize=26;horizontalStack=0;resizeParent=1;resizeParentMax=0;resizeLast=0;collapsible=1;marginBottom=0;whiteSpace=wrap;html=1;fontFamily=Comic Sans MS;" vertex="1" collapsed="1" parent="PcI8RWvyvve6QA76Bclb-62">
          <mxGeometry y="90" width="160" height="30" as="geometry">
            <mxRectangle y="90" width="160" height="170" as="alternateBounds" />
          </mxGeometry>
        </mxCell>
        <mxCell id="PcI8RWvyvve6QA76Bclb-79" value="MainMenu&lt;div&gt;SettingsMenu&lt;/div&gt;&lt;div&gt;CollectionMenu&lt;/div&gt;&lt;div&gt;GlobalShopMenu&lt;/div&gt;&lt;div&gt;WishShopMenu&lt;/div&gt;&lt;div&gt;ItemShopMenu&lt;/div&gt;&lt;div&gt;TextMenu &lt;i&gt;*abstract&lt;/i&gt;&lt;/div&gt;&lt;div&gt;&lt;i&gt;ChancesMenu(TextMenu)&lt;/i&gt;&lt;/div&gt;&lt;div&gt;&lt;i&gt;HistoryMenu(TextMenu)&lt;/i&gt;&lt;/div&gt;" style="text;strokeColor=none;fillColor=none;align=center;verticalAlign=top;spacingLeft=4;spacingRight=4;overflow=hidden;rotatable=0;points=[[0,0.5],[1,0.5]];portConstraint=eastwest;whiteSpace=wrap;html=1;" vertex="1" parent="PcI8RWvyvve6QA76Bclb-76">
          <mxGeometry y="26" width="160" height="144" as="geometry" />
        </mxCell>
        <mxCell id="PcI8RWvyvve6QA76Bclb-68" value="Controller" style="swimlane;fontStyle=1;align=center;verticalAlign=top;childLayout=stackLayout;horizontal=1;startSize=26;horizontalStack=0;resizeParent=1;resizeParentMax=0;resizeLast=0;collapsible=1;marginBottom=0;whiteSpace=wrap;html=1;fontFamily=Comic Sans MS;" vertex="1" parent="1">
          <mxGeometry x="785" y="80" width="160" height="120" as="geometry" />
        </mxCell>
        <mxCell id="PcI8RWvyvve6QA76Bclb-69" value="+ field: type" style="text;strokeColor=none;fillColor=none;align=center;verticalAlign=top;spacingLeft=4;spacingRight=4;overflow=hidden;rotatable=0;points=[[0,0.5],[1,0.5]];portConstraint=eastwest;whiteSpace=wrap;html=1;fontFamily=Comic Sans MS;" vertex="1" parent="PcI8RWvyvve6QA76Bclb-68">
          <mxGeometry y="26" width="160" height="26" as="geometry" />
        </mxCell>
        <mxCell id="PcI8RWvyvve6QA76Bclb-70" value="" style="line;strokeWidth=1;fillColor=none;align=center;verticalAlign=middle;spacingTop=-1;spacingLeft=3;spacingRight=3;rotatable=0;labelPosition=right;points=[];portConstraint=eastwest;strokeColor=inherit;fontFamily=Comic Sans MS;" vertex="1" parent="PcI8RWvyvve6QA76Bclb-68">
          <mxGeometry y="52" width="160" height="8" as="geometry" />
        </mxCell>
        <mxCell id="PcI8RWvyvve6QA76Bclb-71" value="+ method(type): type" style="text;strokeColor=none;fillColor=none;align=center;verticalAlign=top;spacingLeft=4;spacingRight=4;overflow=hidden;rotatable=0;points=[[0,0.5],[1,0.5]];portConstraint=eastwest;whiteSpace=wrap;html=1;fontFamily=Comic Sans MS;" vertex="1" parent="PcI8RWvyvve6QA76Bclb-68">
          <mxGeometry y="60" width="160" height="26" as="geometry" />
        </mxCell>
        <mxCell id="PcI8RWvyvve6QA76Bclb-72" value="" style="line;strokeWidth=1;fillColor=none;align=center;verticalAlign=middle;spacingTop=-1;spacingLeft=3;spacingRight=3;rotatable=0;labelPosition=right;points=[];portConstraint=eastwest;strokeColor=inherit;fontFamily=Comic Sans MS;" vertex="1" parent="PcI8RWvyvve6QA76Bclb-68">
          <mxGeometry y="86" width="160" height="8" as="geometry" />
        </mxCell>
        <mxCell id="PcI8RWvyvve6QA76Bclb-73" value="+ method(type): type" style="text;strokeColor=none;fillColor=none;align=center;verticalAlign=top;spacingLeft=4;spacingRight=4;overflow=hidden;rotatable=0;points=[[0,0.5],[1,0.5]];portConstraint=eastwest;whiteSpace=wrap;html=1;fontFamily=Comic Sans MS;" vertex="1" parent="PcI8RWvyvve6QA76Bclb-68">
          <mxGeometry y="94" width="160" height="26" as="geometry" />
        </mxCell>
      </root>
    </mxGraphModel>
  </diagram>
</mxfile>
